<?xml version="1.0" encoding="utf-8" ?><svg xmlns="http://www.w3.org/2000/svg" xmlns:xlink="http://www.w3.org/1999/xlink" width="436" height="412" viewBox="0 0 436 412"><clipPath id="cl_3"><rect x="1.1444092e-05" y="1.1444092e-05" width="436" height="412"/></clipPath><g clip-path="url(#cl_3)"><path fill="white" transform="matrix(0.986425 0 0 0.985646 -28.6063 -36.4689)" d="M238.828 38.1319C247.731 37.9679 256.8 37.7686 265.69 38.3351C269.364 38.5693 273.058 39.1478 276.717 39.5732C279.467 39.893 282.267 40.0259 285 40.4537C314.853 45.1276 341.304 55.2686 367.427 70.285C379.733 77.3592 391.113 86.3061 401.51 95.9151C408.774 102.628 415.716 109.578 422.052 117.186C441.017 140.32 454.87 167.208 462.7 196.079C477.97 252.244 470.323 312.173 441.438 362.703C437.169 370.073 432.482 377.371 427.323 384.154C404.559 414.082 369.4 443.486 332.562 453.327C334.823 451.597 337.423 450.139 339.839 448.622C343.344 446.42 346.903 444.033 350.154 441.468C372.091 424.159 389.517 402.264 392.942 373.749C395.257 354.472 388.939 333.577 376.983 318.37C367.363 306.03 353.745 297.425 338.469 294.035C335.465 293.382 332.403 293.134 329.361 292.738C328.638 292.644 327.522 292.622 327.029 292.048C325.791 290.609 324.219 285.41 323.236 283.31C320.246 276.927 317.147 271.079 312.82 265.505C300.518 249.654 279.947 237.303 259.987 234.781C251.872 233.478 243.583 233.988 235.511 235.367C214.448 238.963 192.42 256.192 181.742 274.329C179.726 277.752 177.957 281.436 176.333 285.057C175.342 287.268 174.585 290.004 173.137 291.941C172.301 293.058 167.371 293.015 165.817 293.272C147.558 296.292 132.466 305.954 121.758 320.991C109.761 338.062 105.067 359.212 108.715 379.755C113.411 405.955 132.72 428.271 153.424 443.782C158.335 447.461 163.747 450.42 168.779 453.923C161.361 452.381 154.437 449.278 147.672 445.974C129.315 437.185 112.46 425.553 97.7303 411.508C55.3844 371.362 30.9892 315.855 30.0494 257.511C29.9004 250.078 29.8686 242.311 30.4679 234.903C34.2697 187.903 54.5832 140.54 87.4005 106.499C119.323 72.7639 161.199 50.1239 206.907 41.8878C217.403 39.944 228.145 38.3398 238.828 38.1319ZM303.207 215.75C316.795 212.27 326.587 202.946 333.55 191.064C343.018 174.909 347.251 153.939 342.427 135.599C340.005 126.394 334.984 116.399 326.437 111.505C321.214 108.515 314.783 106.968 308.776 107.604C298.466 108.74 289.937 115.122 283.613 123.056C271.779 137.904 265.612 160.396 267.77 179.174C269.071 190.493 272.875 203.091 282.115 210.469C288.078 215.229 295.07 216.83 302.591 215.853C302.797 215.826 303.002 215.786 303.207 215.75ZM201.446 216.102C208.459 216.004 214.878 213.171 219.796 208.14C230.152 197.545 232.48 181.649 232.254 167.449C232.191 163.469 231.964 159.231 231.276 155.306C228.958 142.079 222.352 127.454 212.618 118.013C206.003 111.598 197.566 107.453 188.249 107.74C187.807 107.754 187.382 107.793 186.943 107.84C178.826 108.751 172.249 112.437 167.142 118.856C157.274 131.258 155.006 148.624 156.837 163.934C158.736 179.807 167.121 198.189 179.873 208.211C186.226 213.203 193.365 216.013 201.446 216.102ZM137.954 270.941C143.039 270.036 148 266.653 150.935 262.409C156.608 254.205 157.63 243.473 155.819 233.922C152.808 218.039 143.07 200.276 129.461 190.979C122.168 185.997 115.84 184.043 107.111 184.571C100.563 186.473 96.0695 189.644 92.7816 195.687C86.7765 206.724 87.6951 220.988 91.2547 232.666C95.4344 246.379 104.711 260.329 117.639 267.18C124.248 270.682 130.53 272.532 137.954 270.941ZM369.507 271.26C382.017 269.339 391.584 261.572 398.913 251.559C407.019 240.581 411.358 227.277 411.282 213.632C411.279 210.918 411.269 208.192 410.842 205.505C409.87 199.383 407.09 192.197 401.916 188.425C397.678 185.336 392.382 183.969 387.173 184.347C376.705 185.171 368.229 191.832 361.617 199.581C350.788 212.273 343.249 230.255 344.601 247.084C345.214 254.719 348.513 261.668 354.385 266.616C358.919 270.437 363.724 271.335 369.507 271.26Z"/><path fill="white" transform="matrix(0.986425 0 0 0.985646 -28.6063 -36.4689)" d="M246.625 303.856C259.171 303.423 270.132 305.235 280.238 313.321C287.552 319.174 294.298 328.013 295.387 337.582C296.757 337.527 298.131 337.464 299.502 337.458C309.852 337.412 320.902 342.001 328.25 349.271C336.143 357.06 340.607 367.672 340.656 378.761C340.676 389.601 336.358 399.999 328.666 407.637C323.525 412.762 316.681 416.834 309.546 418.424C304.02 419.656 295.788 419.026 289.977 419.027L255.757 419.019L215.511 419.035C209.466 419.041 200.374 419.681 194.691 418.608C187.935 417.332 180.998 414.13 175.702 409.741C167.078 402.594 161.893 393.45 160.898 382.271C159.912 371.198 162.526 360.868 169.788 352.292C176.389 344.472 185.61 339.322 195.73 337.802C199.007 337.292 202.388 337.278 205.694 337.003C207.176 330.24 210.811 323.745 215.467 318.666C223.48 309.795 234.687 304.468 246.625 303.856Z"/></g></svg>